HIERARCHY
ROOT Hips
{
	OFFSET -0.001795 -0.223333 0.028219
	CHANNELS 6 Xposition Yposition Zposition Zrotation Yrotation Xrotation 
	JOINT LeftUpLeg
	{
		OFFSET 0.069520 -0.091406 -0.006815
		CHANNELS 3 Zrotation Yrotation Xrotation
		JOINT LeftLeg
		{
			OFFSET 0.034277 -0.375199 -0.004496
			CHANNELS 3 Zrotation Yrotation Xrotation
			JOINT LeftFoot
			{
				OFFSET -0.013596 -0.397961 -0.043693
				CHANNELS 3 Zrotation Yrotation Xrotation
				JOINT LeftToe
				{
					OFFSET 0.026358 -0.055791 0.119288
					CHANNELS 3 Zrotation Yrotation Xrotation
					End Site
					{
						OFFSET 0.000000 0.000000 0.000000
					}
				}
			}
		}
	}
	JOINT RightUpLeg
	{
		OFFSET -0.067670 -0.090522 -0.004320
		CHANNELS 3 Zrotation Yrotation Xrotation
		JOINT RightLeg
		{
			OFFSET -0.038290 -0.382569 -0.008850
			CHANNELS 3 Zrotation Yrotation Xrotation
			JOINT RightFoot
			{
				OFFSET 0.015774 -0.398415 -0.042312
				CHANNELS 3 Zrotation Yrotation Xrotation
				JOINT RightToe
				{
					OFFSET -0.025372 -0.048144 0.123348
					CHANNELS 3 Zrotation Yrotation Xrotation
					End Site
					{
						OFFSET 0.000000 0.000000 0.000000
					}
				}
			}
		}
	}
	JOINT Spine
	{
		OFFSET -0.002533 0.108963 -0.026696
		CHANNELS 3 Zrotation Yrotation Xrotation
		JOINT Spine1
		{
			OFFSET 0.005487 0.135180 0.001092
			CHANNELS 3 Zrotation Yrotation Xrotation
			JOINT Spine2
			{
				OFFSET 0.001457 0.052922 0.025425
				CHANNELS 3 Zrotation Yrotation Xrotation
				JOINT Neck
				{
					OFFSET -0.002778 0.213870 -0.042857
					CHANNELS 3 Zrotation Yrotation Xrotation
					JOINT Head
					{
						OFFSET 0.005152 0.064970 0.051349
						CHANNELS 3 Zrotation Yrotation Xrotation
						End Site
						{
							OFFSET 0.000000 0.000000 0.000000
						}
					}
				}
				JOINT LeftShoulder
				{
					OFFSET 0.078845 0.121749 -0.034090
					CHANNELS 3 Zrotation Yrotation Xrotation
					JOINT LeftArm
					{
						OFFSET 0.090977 0.030469 -0.008868
						CHANNELS 3 Zrotation Yrotation Xrotation
						JOINT LeftForeArm
						{
							OFFSET 0.259612 -0.012772 -0.027456
							CHANNELS 3 Zrotation Yrotation Xrotation
							JOINT LeftHand
							{
								OFFSET 0.249234 0.008986 -0.001171
								CHANNELS 3 Zrotation Yrotation Xrotation
								End Site
								{
									OFFSET 0.000000 0.000000 0.000000
								}
							}
						}
					}
				}
				JOINT RightShoulder
				{
					OFFSET -0.081759 0.118833 -0.038615
					CHANNELS 3 Zrotation Yrotation Xrotation
					JOINT RightArm
					{
						OFFSET -0.096012 0.032551 -0.009143
						CHANNELS 3 Zrotation Yrotation Xrotation
						JOINT RightForeArm
						{
							OFFSET -0.253742 -0.013329 -0.021401
							CHANNELS 3 Zrotation Yrotation Xrotation
							JOINT RightHand
							{
								OFFSET -0.255298 0.007772 -0.005559
								CHANNELS 3 Zrotation Yrotation Xrotation
								End Site
								{
									OFFSET 0.000000 0.000000 0.000000
								}
							}
						}
					}
				}
			}
		}
	}
}
MOTION
Frames: 8
Frame Time: 0.050000
0.000000 0.969080 0.000000 21.187232 -23.205309 -30.850360 -1.586463 10.677197 -99.552171 -20.771330 23.876630 100.107446 5.679544 13.222418 6.305399 0.000000 0.000000 0.000000 -10.831925 2.116794 16.481544 -4.914731 2.013439 13.604524 1.773560 0.345400 3.801861 0.000000 0.000000 0.000000 -9.360428 2.832040 25.812120 -11.162534 5.723911 -1.501106 -2.223915 11.964400 4.654968 8.377432 -5.580146 -7.851630 0.000000 0.000000 0.000000 -3.376250 -18.477310 6.428277 -44.136455 -26.737527 4.295629 -8.149809 -63.052537 7.352600 0.000000 0.000000 0.000000 3.362743 18.495437 5.939575 60.288313 31.276648 10.622999 7.156476 59.557312 5.690573 0.000000 0.000000 0.000000 
0.001188 0.971027 -0.000511 20.587229 -21.932491 -31.324711 -2.419551 8.876729 -110.398192 -24.340961 27.760137 105.271042 2.496754 13.006979 41.648133 0.000000 0.000000 0.000000 -12.315040 2.488487 18.209069 -1.992069 1.005587 10.369425 0.820574 0.062728 1.748775 0.000000 0.000000 0.000000 -8.041383 2.389088 25.959796 -9.764068 5.130648 -0.502896 -5.237293 12.383426 4.185818 11.233248 -6.820258 -11.770017 0.000000 0.000000 0.000000 -4.214024 -19.410363 6.707189 -40.670842 -25.491136 3.354612 -12.298541 -65.422444 9.720380 0.000000 0.000000 0.000000 5.215019 16.615527 5.452072 59.963159 34.321445 12.510625 4.162976 58.743566 4.218408 0.000000 0.000000 0.000000 
0.001414 0.968870 -0.000626 18.391883 -21.136094 -29.513841 -0.372190 10.088221 -109.826209 -25.701146 28.930460 103.402504 0.476827 10.803871 40.889084 0.000000 0.000000 0.000000 -11.010799 1.844009 16.905608 -1.644290 1.101911 11.777967 2.405043 1.366679 4.409154 0.000000 0.000000 0.000000 -7.147319 1.832631 24.401182 -8.310327 4.415146 0.354371 -5.305518 12.920123 4.326565 9.149026 -5.375892 -10.915984 0.000000 0.000000 0.000000 -8.258179 -20.644224 7.452869 -38.158664 -25.727007 3.188195 -0.618759 -65.357512 1.899801 0.000000 0.000000 0.000000 4.521625 18.046794 6.038235 60.565245 35.727486 13.654843 -1.918080 56.470747 1.111153 0.000000 0.000000 0.000000 
0.001978 0.969180 -0.000522 19.529399 -24.354691 -31.077407 -2.345369 10.931980 -112.925882 -24.670304 26.438514 105.204806 -7.294563 3.686730 45.130924 0.000000 0.000000 0.000000 -12.290179 2.415067 16.757348 -1.357123 1.112678 12.098558 2.479549 1.240513 4.485387 0.000000 0.000000 0.000000 -6.234205 1.873212 24.290144 -9.013401 5.157896 2.160300 -6.225978 13.332401 3.469617 10.172988 -6.238201 -10.446942 0.000000 0.000000 0.000000 -6.427783 -20.511210 7.303056 -37.514956 -26.532419 3.359677 8.102195 -66.294983 -3.666805 0.000000 0.000000 0.000000 4.397239 18.067501 5.947228 60.824924 38.738769 15.572920 -0.373360 55.837790 1.674416 0.000000 0.000000 0.000000 
0.002513 0.966520 -0.000844 18.770630 -23.661687 -30.534784 -1.450698 11.240569 -113.781244 -28.201383 29.735427 101.962918 -4.574008 6.357722 45.714651 0.000000 0.000000 0.000000 -12.222389 2.143625 15.688559 -0.776010 1.136539 13.193386 2.125243 0.669667 4.373609 0.000000 0.000000 0.000000 -6.069718 1.780640 24.334339 -8.727485 4.843387 1.425665 -5.344665 12.706108 4.377529 8.796221 -5.339078 -10.276855 0.000000 0.000000 0.000000 -6.346783 -20.347682 7.300061 -36.883625 -27.696531 3.579798 9.633321 -65.875689 -4.453121 0.000000 0.000000 0.000000 4.342116 18.821388 6.190518 59.144522 39.135262 15.092165 -0.784109 57.661126 1.424151 0.000000 0.000000 0.000000 
0.002919 0.965648 -0.001118 18.657460 -23.965576 -30.799397 -3.099971 8.977474 -115.860099 -26.314750 27.569495 103.926635 -5.873631 5.213317 46.327564 0.000000 0.000000 0.000000 -11.707930 2.073134 15.821511 -0.746004 1.091018 12.816775 1.121384 -1.634945 4.637404 0.000000 0.000000 0.000000 -5.888971 1.850920 24.837466 -9.164824 5.003120 0.828513 -4.943030 12.162703 4.991559 9.662656 -5.762664 -11.882859 0.000000 0.000000 0.000000 -6.597988 -19.934793 7.254241 -36.646165 -28.319373 3.699641 12.327448 -65.551641 -5.951404 0.000000 0.000000 0.000000 4.486133 19.197294 6.263704 58.590789 39.510795 14.976235 -1.356647 59.268626 0.981982 0.000000 0.000000 0.000000 
0.003243 0.966538 -0.001194 18.694483 -24.503774 -30.557337 -4.288988 7.519826 -117.657483 -27.361975 28.538183 103.713322 -4.762035 6.230330 46.703568 0.000000 0.000000 0.000000 -11.764064 2.086804 15.399763 -0.634815 1.140103 13.347488 1.446602 -1.142607 4.838048 0.000000 0.000000 0.000000 -6.048675 1.854935 24.404765 -9.117944 4.866894 0.286580 -4.988150 12.935373 5.119480 9.822964 -5.882426 -11.683581 0.000000 0.000000 0.000000 -6.474616 -19.754069 7.144191 -37.025016 -29.163124 3.989758 12.114837 -65.710699 -5.904699 0.000000 0.000000 0.000000 4.365094 18.719512 6.123330 59.017439 39.307907 15.017994 -3.231519 62.438668 0.063711 0.000000 0.000000 0.000000 
0.003545 0.967626 -0.001318 18.622296 -24.850374 -30.382306 -5.743867 5.242437 -119.189361 -26.866332 27.805271 104.364059 -4.741428 6.479759 47.759913 0.000000 0.000000 0.000000 -11.589807 2.121183 15.668539 -0.584698 1.059135 12.731038 1.531253 -1.717631 5.787425 0.000000 0.000000 0.000000 -6.298425 1.923177 24.384737 -8.801444 4.546100 -0.443529 -5.000232 13.748200 5.435622 10.130568 -5.998773 -12.049464 0.000000 0.000000 0.000000 -6.638189 -19.586677 7.053864 -36.864300 -30.036388 4.196489 10.684398 -65.615863 -5.091010 0.000000 0.000000 0.000000 4.218061 18.179149 5.950920 59.682995 39.779806 15.548764 -3.659156 63.289080 -0.033508 0.000000 0.000000 0.000000 
